<svg width="21" height="24" viewBox="0 0 21 24" fill="none" xmlns="http://www.w3.org/2000/svg">
<path d="M17.5064 12.6827C17.4956 10.7162 18.3943 9.23204 20.2134 8.13898C19.1955 6.69765 17.658 5.90465 15.6278 5.74926C13.7058 5.59923 11.6052 6.85839 10.8364 6.85839C10.0243 6.85839 8.16195 5.80284 6.70018 5.80284C3.67921 5.85106 0.46875 8.1872 0.46875 12.9399C0.46875 14.3437 0.728619 15.7939 1.24836 17.2906C1.94134 19.2571 4.44257 24.0794 7.05209 23.999C8.4164 23.9669 9.38008 23.0399 11.1558 23.0399C12.8775 23.0399 13.7708 23.999 15.2921 23.999C17.9233 23.9615 20.1863 19.5786 20.8468 17.6068C17.3169 15.9618 17.5064 12.7845 17.5064 12.6827ZM14.4421 3.88464C15.9201 2.14861 15.7848 0.56796 15.7414 0C14.4367 0.0750136 12.9262 0.878731 12.0654 1.86998C11.118 2.93089 10.5603 4.24363 10.6794 5.72247C12.0925 5.82963 13.381 5.11164 14.4421 3.88464Z" fill="black"/>
</svg>
