<svg width="8" height="8" viewBox="0 0 8 8" fill="none" xmlns="http://www.w3.org/2000/svg">
<path d="M7.84621 0.93775C8.08163 0.694913 8.04413 0.334228 7.7608 0.132459C7.47746 -0.0693105 7.05663 -0.0371703 6.82121 0.205667L4.00038 3.10722L1.17955 0.205667C0.944131 -0.0371703 0.523298 -0.0693105 0.239964 0.132459C-0.0433689 0.334228 -0.0808689 0.694913 0.154548 0.93775L3.13163 4L0.154548 7.06225C-0.0808689 7.30509 -0.0433689 7.66577 0.239964 7.86754C0.523298 8.06931 0.944131 8.03717 1.17955 7.79433L4.00038 4.89278L6.82121 7.79433C7.05663 8.03717 7.47746 8.06931 7.7608 7.86754C8.04413 7.66577 8.08163 7.30509 7.84621 7.06225L4.86913 4L7.84621 0.93775Z" fill="black"/>
</svg>
