<svg width="32" height="24" viewBox="0 0 32 24" fill="none" xmlns="http://www.w3.org/2000/svg">
<path d="M21.3347 24H24.0016C24.6349 24 25.2183 23.6786 25.535 23.1482L31.7576 12.8625C32.0799 12.3321 32.0799 11.6786 31.7632 11.1429C31.4465 10.6071 30.8631 10.2857 30.2242 10.2857H8.00052C7.36715 10.2857 6.78377 10.6071 6.46709 11.1375L2.66684 17.4161V3.42857C2.66684 2.95714 3.06687 2.57143 3.55579 2.57143H10.084C10.3173 2.57143 10.5451 2.6625 10.7118 2.82321L12.1841 4.24286C13.3509 5.36786 14.9343 6 16.5844 6H23.1126C23.6015 6 24.0016 6.38571 24.0016 6.85714V8.57143H26.6684V6.85714C26.6684 4.96607 25.0739 3.42857 23.1126 3.42857H16.5844C15.6399 3.42857 14.7343 3.06964 14.0676 2.42679L12.5953 1.00179C11.9286 0.358929 11.0229 0 10.0784 0H3.55579C1.59455 0 0 1.5375 0 3.42857V20.5714C0 22.4625 1.59455 24 3.55579 24H4.87254H21.3347Z" fill="black"/>
</svg>
