<svg width="32" height="32" viewBox="0 0 32 32" fill="none" xmlns="http://www.w3.org/2000/svg">
<path d="M29 16C29 12.5522 27.6304 9.24558 25.1924 6.80761C22.7544 4.36964 19.4478 3 16 3C12.5522 3 9.24558 4.36964 6.80761 6.80761C4.36964 9.24558 3 12.5522 3 16C3 19.4478 4.36964 22.7544 6.80761 25.1924C9.24558 27.6304 12.5522 29 16 29C19.4478 29 22.7544 27.6304 25.1924 25.1924C27.6304 22.7544 29 19.4478 29 16ZM0 16C0 11.7565 1.68571 7.68687 4.68629 4.68629C7.68687 1.68571 11.7565 0 16 0C20.2435 0 24.3131 1.68571 27.3137 4.68629C30.3143 7.68687 32 11.7565 32 16C32 20.2435 30.3143 24.3131 27.3137 27.3137C24.3131 30.3143 20.2435 32 16 32C11.7565 32 7.68687 30.3143 4.68629 27.3137C1.68571 24.3131 0 20.2435 0 16ZM14 11.5V20.5C14 21.3312 13.3313 22 12.5 22C11.6687 22 11 21.3312 11 20.5V11.5C11 10.6687 11.6687 10 12.5 10C13.3313 10 14 10.6687 14 11.5ZM21 11.5V20.5C21 21.3312 20.3312 22 19.5 22C18.6688 22 18 21.3312 18 20.5V11.5C18 10.6687 18.6688 10 19.5 10C20.3312 10 21 10.6687 21 11.5Z" fill="black"/>
<path fill-rule="evenodd" clip-rule="evenodd" d="M29 16C29 12.5522 27.6304 9.24558 25.1924 6.80761C22.7544 4.36964 19.4478 3 16 3C12.5522 3 9.24558 4.36964 6.80761 6.80761C4.36964 9.24558 3 12.5522 3 16C3 19.4478 4.36964 22.7544 6.80761 25.1924C9.24558 27.6304 12.5522 29 16 29C19.4478 29 22.7544 27.6304 25.1924 25.1924C27.6304 22.7544 29 19.4478 29 16ZM14 20.5V11.5C14 10.6687 13.3313 10 12.5 10C11.6687 10 11 10.6687 11 11.5V20.5C11 21.3312 11.6687 22 12.5 22C13.3313 22 14 21.3312 14 20.5ZM21 20.5V11.5C21 10.6687 20.3312 10 19.5 10C18.6688 10 18 10.6687 18 11.5V20.5C18 21.3312 18.6688 22 19.5 22C20.3312 22 21 21.3312 21 20.5Z" fill="#FAFAFA"/>
</svg>
