<svg width="16" height="16" viewBox="0 0 16 16" fill="none" xmlns="http://www.w3.org/2000/svg">
<g clip-path="url(#clip0_2880_114)">
<path d="M16 15.0586L11.8309 10.8895C12.9139 9.56498 13.4463 7.8749 13.3181 6.16882C13.19 4.46274 12.4109 2.8712 11.1422 1.72339C9.87348 0.575578 8.21211 -0.0406786 6.50176 0.00208561C4.79141 0.0448498 3.16292 0.743363 1.95314 1.95314C0.743363 3.16292 0.0448498 4.79141 0.00208561 6.50176C-0.0406786 8.21211 0.575578 9.87348 1.72339 11.1422C2.8712 12.4109 4.46274 13.19 6.16882 13.3181C7.8749 13.4463 9.56498 12.9139 10.8895 11.8309L15.0586 16L16 15.0586ZM6.6791 12.0053C5.62567 12.0053 4.5959 11.6929 3.72 11.1077C2.84411 10.5224 2.16143 9.6906 1.7583 8.71736C1.35517 7.74412 1.2497 6.67319 1.45521 5.64C1.66072 4.60681 2.168 3.65777 2.91288 2.91288C3.65777 2.168 4.60681 1.66072 5.64 1.45521C6.67319 1.2497 7.74412 1.35517 8.71736 1.7583C9.6906 2.16143 10.5224 2.84411 11.1077 3.72C11.6929 4.5959 12.0053 5.62567 12.0053 6.6791C12.0037 8.09121 11.4421 9.44504 10.4436 10.4436C9.44504 11.4421 8.09121 12.0037 6.6791 12.0053Z" fill="black"/>
</g>
<defs>
<clipPath id="clip0_2880_114">
<rect width="16" height="16" fill="white"/>
</clipPath>
</defs>
</svg>
