<svg width="69" height="56" viewBox="0 0 69 56" fill="none" xmlns="http://www.w3.org/2000/svg">
<g clip-path="url(#clip0_2864_654)">
<path d="M10.325 14C10.325 10.287 11.7754 6.72601 14.3572 4.10051C16.9389 1.475 20.4405 0 24.0917 0C27.7428 0 31.2444 1.475 33.8262 4.10051C36.4079 6.72601 37.8583 10.287 37.8583 14C37.8583 17.713 36.4079 21.274 33.8262 23.8995C31.2444 26.525 27.7428 28 24.0917 28C20.4405 28 16.9389 26.525 14.3572 23.8995C11.7754 21.274 10.325 17.713 10.325 14ZM0 52.7516C0 41.9781 8.58266 33.25 19.1765 33.25H29.0068C39.6007 33.25 48.1833 41.9781 48.1833 52.7516C48.1833 54.5453 46.7529 56 44.989 56H3.1943C1.43044 56 0 54.5453 0 52.7516ZM54.2063 34.125V27.125H47.3229C45.8925 27.125 44.7417 25.9547 44.7417 24.5C44.7417 23.0453 45.8925 21.875 47.3229 21.875H54.2063V14.875C54.2063 13.4203 55.3571 12.25 56.7875 12.25C58.2179 12.25 59.3688 13.4203 59.3688 14.875V21.875H66.2521C67.6825 21.875 68.8333 23.0453 68.8333 24.5C68.8333 25.9547 67.6825 27.125 66.2521 27.125H59.3688V34.125C59.3688 35.5797 58.2179 36.75 56.7875 36.75C55.3571 36.75 54.2063 35.5797 54.2063 34.125Z" fill="black"/>
</g>
<defs>
<clipPath id="clip0_2864_654">
<rect width="68.8333" height="56" fill="white"/>
</clipPath>
</defs>
</svg>
