<svg width="24" height="24" viewBox="0 0 24 24" fill="none" xmlns="http://www.w3.org/2000/svg">
<path d="M3 1.71429C3 0.766071 2.32969 0 1.5 0C0.670312 0 0 0.766071 0 1.71429V19.7143C0 22.0821 1.67812 24 3.75 24H22.5C23.3297 24 24 23.2339 24 22.2857C24 21.3375 23.3297 20.5714 22.5 20.5714H3.75C3.3375 20.5714 3 20.1857 3 19.7143V1.71429ZM22.0594 6.35357C22.6453 5.68393 22.6453 4.59643 22.0594 3.92679C21.4734 3.25714 20.5219 3.25714 19.9359 3.92679L15 9.57321L12.3094 6.49821C11.7234 5.82857 10.7719 5.82857 10.1859 6.49821L4.93594 12.4982C4.35 13.1679 4.35 14.2554 4.93594 14.925C5.52188 15.5946 6.47344 15.5946 7.05938 14.925L11.25 10.1411L13.9406 13.2161C14.5266 13.8857 15.4781 13.8857 16.0641 13.2161L22.0641 6.35893L22.0594 6.35357Z" fill="black"/>
</svg>
