<svg width="16" height="16" viewBox="0 0 16 16" fill="none" xmlns="http://www.w3.org/2000/svg">
<path d="M14.8909 0.518624C14.1994 -0.172875 13.0817 -0.172875 12.3902 0.518624L11.4397 1.46588L14.531 4.55711L15.4814 3.60669C16.1729 2.91519 16.1729 1.79742 15.4814 1.10593L14.8909 0.518624ZM5.44358 7.46519C5.25097 7.6578 5.10257 7.89462 5.01732 8.15669L4.08269 10.9606C3.99112 11.2321 4.06374 11.5321 4.26582 11.7373C4.46791 11.9426 4.76787 12.012 5.04258 11.9205L7.84646 10.9858C8.10538 10.9006 8.3422 10.7522 8.53796 10.5596L13.8205 5.27387L10.7261 2.17949L5.44358 7.46519ZM3.03123 1.85426C1.35774 1.85426 0 3.212 0 4.88549V12.9688C0 14.6423 1.35774 16 3.03123 16H11.1145C12.788 16 14.1457 14.6423 14.1457 12.9688V9.93754C14.1457 9.37866 13.6942 8.92713 13.1353 8.92713C12.5764 8.92713 12.1249 9.37866 12.1249 9.93754V12.9688C12.1249 13.5277 11.6734 13.9792 11.1145 13.9792H3.03123C2.47235 13.9792 2.02082 13.5277 2.02082 12.9688V4.88549C2.02082 4.32661 2.47235 3.87508 3.03123 3.87508H6.06246C6.62134 3.87508 7.07287 3.42355 7.07287 2.86467C7.07287 2.30579 6.62134 1.85426 6.06246 1.85426H3.03123Z" fill="black"/>
</svg>
