<svg width="26" height="20" viewBox="0 0 26 20" fill="none" xmlns="http://www.w3.org/2000/svg">
<path d="M12.9979 1C9.63154 1 6.93594 2.47857 4.97361 4.23839C3.02378 5.98214 1.71973 8.07143 1.10312 9.5058C0.965628 9.82321 0.965628 10.1768 1.10312 10.4942C1.71973 11.9286 3.02378 14.0179 4.97361 15.7616C6.93594 17.5214 9.63154 19 12.9979 19C16.3643 19 19.0599 17.5214 21.0222 15.7616C22.9721 14.0138 24.2761 11.9286 24.8969 10.4942C25.0344 10.1768 25.0344 9.82321 24.8969 9.5058C24.2761 8.07143 22.9721 5.98214 21.0222 4.23839C19.0599 2.47857 16.3643 1 12.9979 1ZM6.99844 10C6.99844 8.46553 7.63052 6.99391 8.75564 5.90888C9.88076 4.82385 11.4068 4.21429 12.9979 4.21429C14.5891 4.21429 16.1151 4.82385 17.2402 5.90888C18.3653 6.99391 18.9974 8.46553 18.9974 10C18.9974 11.5345 18.3653 13.0061 17.2402 14.0911C16.1151 15.1761 14.5891 15.7857 12.9979 15.7857C11.4068 15.7857 9.88076 15.1761 8.75564 14.0911C7.63052 13.0061 6.99844 11.5345 6.99844 10ZM12.9979 7.42857C12.9979 8.84687 11.8022 10 10.3315 10C10.0357 10 9.75237 9.95179 9.48572 9.86741C9.25658 9.79509 8.98993 9.9317 8.99826 10.1647C9.01076 10.442 9.05243 10.7192 9.13159 10.9964C9.70237 13.0536 11.898 14.275 14.0312 13.7246C16.1643 13.1741 17.4309 11.0567 16.8601 8.99955C16.3976 7.33214 14.8686 6.21116 13.1687 6.14286C12.9271 6.13482 12.7854 6.38795 12.8604 6.61295C12.9479 6.87009 12.9979 7.1433 12.9979 7.42857Z" fill="black"/>
<path d="M1.66797 1.75L24.168 18.25" stroke="black" stroke-width="2.5" stroke-linecap="round"/>
</svg>
