<svg width="16" height="13" viewBox="0 0 16 13" fill="none" xmlns="http://www.w3.org/2000/svg">
<path d="M5.20027 8.8C8.07277 8.8 10.4003 6.83 10.4003 4.4C10.4003 1.97 8.07277 0 5.20027 0C2.32777 0 0.000273611 1.97 0.000273611 4.4C0.000273611 5.365 0.367774 6.2575 0.990274 6.985C0.902774 7.22 0.772774 7.4275 0.635274 7.6025C0.515274 7.7575 0.392774 7.8775 0.302774 7.96C0.257774 8 0.220274 8.0325 0.195274 8.0525C0.182774 8.0625 0.172774 8.07 0.167774 8.0725L0.162774 8.0775C0.0252736 8.18 -0.0347264 8.36 0.0202736 8.5225C0.0752736 8.685 0.227774 8.8 0.400274 8.8C0.945274 8.8 1.49527 8.66 1.95277 8.4875C2.18277 8.4 2.39777 8.3025 2.58527 8.2025C3.35277 8.5825 4.24527 8.8 5.20027 8.8ZM11.2003 4.4C11.2003 7.2075 8.72277 9.3225 5.78777 9.575C6.39527 11.435 8.41027 12.8 10.8003 12.8C11.7553 12.8 12.6478 12.5825 13.4178 12.2025C13.6053 12.3025 13.8178 12.4 14.0478 12.4875C14.5053 12.66 15.0553 12.8 15.6003 12.8C15.7728 12.8 15.9278 12.6875 15.9803 12.5225C16.0328 12.3575 15.9753 12.1775 15.8353 12.075L15.8303 12.07C15.8253 12.065 15.8153 12.06 15.8028 12.05C15.7778 12.03 15.7403 12 15.6953 11.9575C15.6053 11.875 15.4828 11.755 15.3628 11.6C15.2253 11.425 15.0953 11.215 15.0078 10.9825C15.6303 10.2575 15.9978 9.365 15.9978 8.3975C15.9978 6.0775 13.8753 4.175 11.1828 4.01C11.1928 4.1375 11.1978 4.2675 11.1978 4.3975L11.2003 4.4Z" fill="black"/>
</svg>
