<svg width="24" height="24" viewBox="0 0 24 24" fill="none" xmlns="http://www.w3.org/2000/svg">
<path d="M23.9917 11.9766C23.9917 12.8203 23.3667 13.4813 22.6583 13.4813H21.325L21.3542 20.9906C21.3542 21.1172 21.3458 21.2437 21.3333 21.3703V22.125C21.3333 23.1609 20.5875 24 19.6667 24H19C18.9542 24 18.9083 24 18.8625 23.9953C18.8042 24 18.7458 24 18.6875 24H17.3333H16.3333C15.4125 24 14.6667 23.1609 14.6667 22.125V21V18C14.6667 17.1703 14.0708 16.5 13.3333 16.5H10.6667C9.92916 16.5 9.33333 17.1703 9.33333 18V21V22.125C9.33333 23.1609 8.5875 24 7.66667 24H6.66667H5.3375C5.275 24 5.2125 23.9953 5.15 23.9906C5.1 23.9953 5.05 24 5 24H4.33333C3.4125 24 2.66667 23.1609 2.66667 22.125V16.875C2.66667 16.8328 2.66667 16.7859 2.67083 16.7438V13.4813H1.33333C0.583333 13.4813 0 12.825 0 11.9766C0 11.5547 0.125 11.1797 0.416667 10.8516L11.1 0.375C11.3917 0.046875 11.725 0 12.0167 0C12.3083 0 12.6417 0.09375 12.8917 0.328125L23.5333 10.8516C23.8667 11.1797 24.0333 11.5547 23.9917 11.9766Z" fill="black"/>
</svg>
