<svg width="20" height="16" viewBox="0 0 20 16" fill="none" xmlns="http://www.w3.org/2000/svg">
<path d="M1.50625 2.0875C1.50313 2.0625 1.5 2.03438 1.5 2.00938C1.5 2.00625 1.5 2.00625 1.5 2.00312C1.5 1.72812 1.725 1.50312 2 1.50312C2.02812 1.50312 2.05938 1.50625 2.0875 1.50937C2.32188 1.54687 2.5 1.75312 2.5 2C2.5 2.275 2.275 2.5 2 2.5C1.75312 2.5 1.54688 2.32188 1.50625 2.0875ZM0 2C0 2.84062 0.515625 3.55938 1.25 3.85313V7.14687C0.515625 7.44062 0 8.15938 0 9C0 10.1031 0.896875 11 2 11C2.84062 11 3.55938 10.4844 3.85313 9.75H10.1469C10.4438 10.4844 11.1625 11 12 11C13.1031 11 14 10.1031 14 9C14 8.15938 13.4844 7.44062 12.75 7.14687V3.85313C13.4844 3.55625 14 2.8375 14 2C14 0.896875 13.1031 0 12 0C11.1594 0 10.4406 0.515625 10.1469 1.25H3.85313C3.55938 0.515625 2.84062 0 2 0C0.896875 0 0 0.896875 0 2ZM11.5 2C11.5 1.86739 11.5527 1.74021 11.6464 1.64645C11.7402 1.55268 11.8674 1.5 12 1.5C12.1326 1.5 12.2598 1.55268 12.3536 1.64645C12.4473 1.74021 12.5 1.86739 12.5 2C12.5 2.13261 12.4473 2.25979 12.3536 2.35355C12.2598 2.44732 12.1326 2.5 12 2.5C11.8674 2.5 11.7402 2.44732 11.6464 2.35355C11.5527 2.25979 11.5 2.13261 11.5 2ZM10.1469 2.75C10.35 3.25 10.75 3.65313 11.25 3.85313V7.14687C10.75 7.35 10.3469 7.75 10.1469 8.25H3.85313C3.65 7.75 3.25 7.34687 2.75 7.14687V3.85313C3.25 3.65 3.65313 3.25 3.85313 2.75H10.1469ZM12 8.5C12.1326 8.5 12.2598 8.55268 12.3536 8.64645C12.4473 8.74021 12.5 8.86739 12.5 9C12.5 9.13261 12.4473 9.25979 12.3536 9.35355C12.2598 9.44732 12.1326 9.5 12 9.5C11.8674 9.5 11.7402 9.44732 11.6464 9.35355C11.5527 9.25979 11.5 9.13261 11.5 9C11.5 8.86739 11.5527 8.74021 11.6464 8.64645C11.7402 8.55268 11.8674 8.5 12 8.5ZM2.5 9C2.5 9.24688 2.32188 9.45312 2.0875 9.49375C2.0625 9.49687 2.03438 9.5 2.00938 9.5H2.00312C1.72812 9.5 1.50312 9.275 1.50312 9C1.50312 8.97188 1.50625 8.94063 1.50937 8.9125C1.54687 8.67813 1.75312 8.5 2 8.5C2.275 8.5 2.5 8.725 2.5 9ZM14.7281 7.75H16.1469C16.35 8.25 16.75 8.65312 17.25 8.85312V12.1469C16.75 12.35 16.3469 12.75 16.1469 13.25H9.85312C9.65 12.75 9.25 12.3469 8.75 12.1469V11H7.25V12.1469C6.51562 12.4438 6 13.1625 6 14C6 15.1031 6.89688 16 8 16C8.84062 16 9.55937 15.4844 9.85312 14.75H16.1469C16.4438 15.4844 17.1625 16 18 16C19.1031 16 20 15.1031 20 14C20 13.1594 19.4844 12.4406 18.75 12.1469V8.85312C19.4844 8.55625 20 7.8375 20 7C20 5.89688 19.1031 5 18 5C17.1594 5 16.4406 5.51562 16.1469 6.25H14V6.7625C14.3063 7.0375 14.5562 7.37187 14.7281 7.75ZM17.5063 6.91563C17.5153 6.84896 17.5377 6.7848 17.5721 6.727C17.6065 6.66919 17.6522 6.61892 17.7065 6.57919C17.7608 6.53947 17.8225 6.51111 17.888 6.49581C17.9535 6.48051 18.0215 6.47859 18.0877 6.49016C18.154 6.50173 18.2173 6.52656 18.2737 6.56315C18.3302 6.59974 18.3786 6.64735 18.4163 6.70312C18.4539 6.75889 18.4798 6.82168 18.4926 6.88773C18.5054 6.95378 18.5047 7.02172 18.4906 7.0875C18.4816 7.15416 18.4592 7.21832 18.4248 7.27613C18.3904 7.33394 18.3447 7.38421 18.2904 7.42393C18.2361 7.46366 18.1744 7.49202 18.1088 7.50731C18.0433 7.52261 17.9754 7.52453 17.9091 7.51296C17.8429 7.50139 17.7796 7.47657 17.7232 7.43997C17.6667 7.40338 17.6182 7.35578 17.5806 7.3C17.543 7.24423 17.517 7.18144 17.5043 7.1154C17.4915 7.04935 17.4922 6.9814 17.5063 6.91563ZM8.49375 14.0844C8.48472 14.151 8.46234 14.2152 8.42793 14.273C8.39353 14.3308 8.34781 14.3811 8.29352 14.4208C8.23923 14.4605 8.17748 14.4889 8.11197 14.5042C8.04646 14.5195 7.97854 14.5214 7.91227 14.5098C7.846 14.4983 7.78275 14.4734 7.7263 14.4368C7.66985 14.4003 7.62136 14.3527 7.58375 14.2969C7.54613 14.2411 7.52016 14.1783 7.50738 14.1123C7.4946 14.0462 7.49528 13.9783 7.50938 13.9125C7.5184 13.8458 7.54079 13.7817 7.57519 13.7239C7.6096 13.6661 7.65531 13.6158 7.7096 13.5761C7.76389 13.5363 7.82564 13.508 7.89115 13.4927C7.95666 13.4774 8.02459 13.4755 8.09085 13.487C8.15712 13.4986 8.22038 13.5234 8.27683 13.56C8.33328 13.5966 8.38176 13.6442 8.41938 13.7C8.45699 13.7558 8.48297 13.8186 8.49575 13.8846C8.50853 13.9507 8.50785 14.0186 8.49375 14.0844ZM17.9156 14.4906C17.6812 14.45 17.5031 14.2437 17.5031 13.9969C17.5031 13.7219 17.7281 13.4969 18.0031 13.4969C18.25 13.4969 18.4563 13.675 18.4969 13.9094V13.9125C18.5 13.9406 18.5031 13.9687 18.5031 13.9969C18.5031 14.2719 18.2781 14.4969 18.0031 14.4969C17.975 14.4969 17.9437 14.4938 17.9156 14.4906Z" fill="black"/>
</svg>
