<svg width="64" height="64" viewBox="0 0 64 64" fill="none" xmlns="http://www.w3.org/2000/svg">
<circle cx="32" cy="32" r="32" fill="black"/>
<path d="M45 32C45 35.4478 43.6304 38.7544 41.1924 41.1924C38.7544 43.6304 35.4478 45 32 45C28.5522 45 25.2456 43.6304 22.8076 41.1924C20.3696 38.7544 19 35.4478 19 32C19 28.5522 20.3696 25.2456 22.8076 22.8076C25.2456 20.3696 28.5522 19 32 19C35.4478 19 38.7544 20.3696 41.1924 22.8076C43.6304 25.2456 45 28.5522 45 32ZM16 32C16 36.2435 17.6857 40.3131 20.6863 43.3137C23.6869 46.3143 27.7565 48 32 48C36.2435 48 40.3131 46.3143 43.3137 43.3137C46.3143 40.3131 48 36.2435 48 32C48 27.7565 46.3143 23.6869 43.3137 20.6863C40.3131 17.6857 36.2435 16 32 16C27.7565 16 23.6869 17.6857 20.6863 20.6863C17.6857 23.6869 16 27.7565 16 32ZM30.5 23.5V32C30.5 32.5 30.75 32.9688 31.1687 33.25L37.1688 37.25C37.8563 37.7125 38.7875 37.525 39.25 36.8312C39.7125 36.1375 39.525 35.2125 38.8312 34.75L33.5 31.2V23.5C33.5 22.6687 32.8312 22 32 22C31.1687 22 30.5 22.6687 30.5 23.5Z" fill="#FAFAFA"/>
</svg>
