<svg width="64" height="64" viewBox="0 0 64 64" fill="none" xmlns="http://www.w3.org/2000/svg">
<circle cx="32" cy="32" r="31.5" stroke="black"/>
<path d="M37.3347 44H40.0016C40.6349 44 41.2183 43.6786 41.535 43.1482L47.7576 32.8625C48.0799 32.3321 48.0799 31.6786 47.7632 31.1429C47.4465 30.6071 46.8631 30.2857 46.2242 30.2857H24.0005C23.3671 30.2857 22.7838 30.6071 22.4671 31.1375L18.6668 37.4161V23.4286C18.6668 22.9571 19.0669 22.5714 19.5558 22.5714H26.084C26.3173 22.5714 26.5451 22.6625 26.7118 22.8232L28.1841 24.2429C29.3509 25.3679 30.9343 26 32.5844 26H39.1126C39.6015 26 40.0016 26.3857 40.0016 26.8571V28.5714H42.6684V26.8571C42.6684 24.9661 41.0739 23.4286 39.1126 23.4286H32.5844C31.6399 23.4286 30.7343 23.0696 30.0676 22.4268L28.5953 21.0018C27.9286 20.3589 27.0229 20 26.0784 20H19.5558C17.5945 20 16 21.5375 16 23.4286V40.5714C16 42.4625 17.5945 44 19.5558 44H20.8725H37.3347Z" fill="black"/>
</svg>
