<svg width="64" height="64" viewBox="0 0 64 64" fill="none" xmlns="http://www.w3.org/2000/svg">
<circle cx="32" cy="32" r="31.5" stroke="black"/>
<path d="M24 16C21.7938 16 20 17.7938 20 20V44C20 46.2062 21.7938 48 24 48H40C42.2062 48 44 46.2062 44 44V26H36C34.8938 26 34 25.1062 34 24V16H24ZM36 16V24H44L36 16ZM27 32H37C37.55 32 38 32.45 38 33C38 33.55 37.55 34 37 34H27C26.45 34 26 33.55 26 33C26 32.45 26.45 32 27 32ZM27 36H37C37.55 36 38 36.45 38 37C38 37.55 37.55 38 37 38H27C26.45 38 26 37.55 26 37C26 36.45 26.45 36 27 36ZM27 40H37C37.55 40 38 40.45 38 41C38 41.55 37.55 42 37 42H27C26.45 42 26 41.55 26 41C26 40.45 26.45 40 27 40Z" fill="black"/>
</svg>
