<svg width="64" height="64" viewBox="0 0 64 64" fill="none" xmlns="http://www.w3.org/2000/svg">
<circle cx="32" cy="32" r="32" fill="black"/>
<path d="M22.6909 17.3665C23.0303 18.4166 22.4788 19.5479 21.4667 19.8979L19.8788 20.4417V27.9985C19.8788 31.3113 22.4848 33.999 25.697 33.999C28.9091 33.999 31.5152 31.3113 31.5152 27.9985V20.4417L29.9333 19.8979C28.9152 19.5479 28.3697 18.4166 28.7091 17.3665C29.0485 16.3164 30.1455 15.7539 31.1636 16.1039L32.7455 16.6477C34.3273 17.1915 35.3939 18.7166 35.3939 20.4417V27.9985C35.3939 32.8239 32.0848 36.8492 27.6788 37.793C28.0606 41.287 30.9333 43.9997 34.4242 43.9997C38.1758 43.9997 41.2121 40.8682 41.2121 36.9992V32.5801C39.497 31.8113 38.303 30.0487 38.303 27.9985C38.303 25.2358 40.4727 22.9982 43.1515 22.9982C45.8303 22.9982 48 25.2358 48 27.9985C48 30.0487 46.8061 31.8113 45.0909 32.5801V36.9992C45.0909 43.0746 40.3152 48 34.4242 48C28.7939 48 24.1879 43.5059 23.7879 37.8055C19.3455 36.8867 16 32.8489 16 27.9985V20.4417C16 18.7229 17.0667 17.1915 18.6545 16.6477L20.2364 16.1039C21.2545 15.7539 22.3515 16.3227 22.6909 17.3665ZM43.1515 29.9987C43.6659 29.9987 44.1592 29.788 44.5229 29.4129C44.8866 29.0378 45.0909 28.529 45.0909 27.9985C45.0909 27.4681 44.8866 26.9593 44.5229 26.5842C44.1592 26.2091 43.6659 25.9984 43.1515 25.9984C42.6372 25.9984 42.1439 26.2091 41.7802 26.5842C41.4165 26.9593 41.2121 27.4681 41.2121 27.9985C41.2121 28.529 41.4165 29.0378 41.7802 29.4129C42.1439 29.788 42.6372 29.9987 43.1515 29.9987Z" fill="#FAFAFA"/>
</svg>
