<svg width="64" height="64" viewBox="0 0 64 64" fill="none" xmlns="http://www.w3.org/2000/svg">
<circle cx="32" cy="32" r="31.5" stroke="black"/>
<path d="M47.9113 26.4145C48.1235 26.9584 47.9445 27.5648 47.4869 27.9523L44.6156 30.4153C44.6886 30.9342 44.7284 31.4655 44.7284 32.0031C44.7284 32.5407 44.6886 33.0721 44.6156 33.5909L47.4869 36.0539C47.9445 36.4415 48.1235 37.0479 47.9113 37.5917C47.6195 38.3356 47.2681 39.0483 46.8636 39.7359L46.5519 40.2422C46.1143 40.9299 45.6236 41.58 45.0865 42.1926C44.6952 42.6427 44.0454 42.7927 43.4618 42.6177L39.7683 41.5112C38.8798 42.1551 37.8984 42.6927 36.8506 43.099L36.0218 46.6685C35.8891 47.2374 35.425 47.6874 34.8149 47.7812C33.8998 47.925 32.9582 48 31.9967 48C31.0352 48 30.0936 47.925 29.1785 47.7812C28.5684 47.6874 28.1042 47.2374 27.9716 46.6685L27.1427 43.099C26.095 42.6927 25.1136 42.1551 24.2251 41.5112L20.5382 42.624C19.9546 42.799 19.3048 42.6427 18.9136 42.1989C18.3764 41.5862 17.8857 40.9361 17.4481 40.2485L17.1364 39.7421C16.7319 39.0545 16.3805 38.3419 16.0887 37.598C15.8765 37.0541 16.0556 36.4477 16.5131 36.0602L19.3844 33.5972C19.3114 33.0721 19.2716 32.5407 19.2716 32.0031C19.2716 31.4655 19.3114 30.9342 19.3844 30.4153L16.5131 27.9523C16.0556 27.5648 15.8765 26.9584 16.0887 26.4145C16.3805 25.6706 16.7319 24.958 17.1364 24.2704L17.4481 23.764C17.8857 23.0764 18.3764 22.4263 18.9136 21.8136C19.3048 21.3635 19.9546 21.2135 20.5382 21.3886L24.2317 22.495C25.1202 21.8511 26.1016 21.3135 27.1494 20.9072L27.9782 17.3378C28.1109 16.7689 28.575 16.3188 29.1851 16.225C30.1002 16.075 31.0418 16 32.0033 16C32.9648 16 33.9064 16.075 34.8215 16.2188C35.4316 16.3126 35.8958 16.7626 36.0284 17.3315L36.8573 20.901C37.905 21.3073 38.8864 21.8449 39.775 22.4888L43.4685 21.3823C44.052 21.2073 44.7018 21.3635 45.0931 21.8074C45.6302 22.42 46.1209 23.0701 46.5586 23.7578L46.8702 24.2641C47.2747 24.9517 47.6262 25.6644 47.9179 26.4083L47.9113 26.4145ZM32.0033 37.0041C33.4103 37.0041 34.7596 36.4772 35.7544 35.5394C36.7493 34.6015 37.3082 33.3295 37.3082 32.0031C37.3082 30.6768 36.7493 29.4048 35.7544 28.4669C34.7596 27.529 33.4103 27.0021 32.0033 27.0021C30.5964 27.0021 29.2471 27.529 28.2522 28.4669C27.2574 29.4048 26.6984 30.6768 26.6984 32.0031C26.6984 33.3295 27.2574 34.6015 28.2522 35.5394C29.2471 36.4772 30.5964 37.0041 32.0033 37.0041Z" fill="black"/>
</svg>
