<svg width="24" height="24" viewBox="0 0 24 24" fill="none" xmlns="http://www.w3.org/2000/svg">
<path d="M11.9988 0C11.0506 0 10.2845 0.670312 10.2845 1.5V2.33906C6.40059 2.87813 3.42737 5.82187 3.42737 9.375V10.9406C3.42737 13.0687 2.59702 15.1359 1.08095 16.7953L0.282731 17.6719C-0.0279836 18.0094 -0.0869122 18.4734 0.127374 18.8625C0.341659 19.2516 0.791659 19.5 1.28452 19.5H22.7131C23.2059 19.5 23.6559 19.2516 23.8702 18.8625C24.0845 18.4734 24.0256 18.0094 23.7149 17.6719L22.9167 16.8C21.4006 15.1359 20.5702 13.0687 20.5702 10.9406V9.375C20.5702 5.82187 17.597 2.87813 13.7131 2.33906V1.5C13.7131 0.670312 12.947 0 11.9988 0ZM11.9988 4.5H12.4274C15.5024 4.5 17.9988 6.68437 17.9988 9.375V10.9406C17.9988 13.1859 18.7434 15.375 20.1256 17.25H3.87202C5.25416 15.375 5.9988 13.1859 5.9988 10.9406V9.375C5.9988 6.68437 8.49523 4.5 11.5702 4.5H11.9988ZM15.4274 21H11.9988H8.57023C8.57023 21.7969 8.92916 22.5609 9.57202 23.1234C10.2149 23.6859 11.0881 24 11.9988 24C12.9095 24 13.7827 23.6859 14.4256 23.1234C15.0684 22.5609 15.4274 21.7969 15.4274 21Z" fill="black"/>
</svg>
