<svg width="32" height="32" viewBox="0 0 32 32" fill="none" xmlns="http://www.w3.org/2000/svg">
<path d="M29 16C29 12.5522 27.6304 9.24558 25.1924 6.80761C22.7544 4.36964 19.4478 3 16 3C12.5522 3 9.24558 4.36964 6.80761 6.80761C4.36964 9.24558 3 12.5522 3 16C3 19.4478 4.36964 22.7544 6.80761 25.1924C9.24558 27.6304 12.5522 29 16 29C19.4478 29 22.7544 27.6304 25.1924 25.1924C27.6304 22.7544 29 19.4478 29 16ZM0 16C0 11.7565 1.68571 7.68687 4.68629 4.68629C7.68687 1.68571 11.7565 0 16 0C20.2435 0 24.3131 1.68571 27.3137 4.68629C30.3143 7.68687 32 11.7565 32 16C32 20.2435 30.3143 24.3131 27.3137 27.3137C24.3131 30.3143 20.2435 32 16 32C11.7565 32 7.68687 30.3143 4.68629 27.3137C1.68571 24.3131 0 20.2435 0 16ZM11.7688 9.19375C12.2438 8.93125 12.8188 8.9375 13.2875 9.225L22.2875 14.725C22.7313 15 23.0063 15.4813 23.0063 16.0063C23.0063 16.5312 22.7313 17.0125 22.2875 17.2875L13.2875 22.7875C12.825 23.0688 12.2438 23.0813 11.7688 22.8188C11.2937 22.5562 11 22.0563 11 21.5125V10.5C11 9.95625 11.2937 9.45625 11.7688 9.19375Z" fill="black"/>
<path fill-rule="evenodd" clip-rule="evenodd" d="M29 16C29 12.5522 27.6304 9.24558 25.1924 6.80761C22.7544 4.36964 19.4478 3 16 3C12.5522 3 9.24558 4.36964 6.80761 6.80761C4.36964 9.24558 3 12.5522 3 16C3 19.4478 4.36964 22.7544 6.80761 25.1924C9.24558 27.6304 12.5522 29 16 29C19.4478 29 22.7544 27.6304 25.1924 25.1924C27.6304 22.7544 29 19.4478 29 16ZM13.2875 9.225C12.8188 8.9375 12.2438 8.93125 11.7688 9.19375C11.2937 9.45625 11 9.95625 11 10.5V21.5125C11 22.0563 11.2937 22.5562 11.7688 22.8188C12.2438 23.0813 12.825 23.0688 13.2875 22.7875L22.2875 17.2875C22.7313 17.0125 23.0063 16.5312 23.0063 16.0063C23.0063 15.4813 22.7313 15 22.2875 14.725L13.2875 9.225Z" fill="#FAFAFA"/>
</svg>
